<svg xmlns="http://www.w3.org/2000/svg" viewBox="0 0 100 100">
  <circle cx="50" cy="50" r="50" fill="#1a6b3c"/>
  <!-- spire -->
  <polygon points="50,6 53,17 47,17" fill="#d4a017"/>
  <rect x="48.5" y="17" width="3" height="5" fill="#d4a017"/>
  <!-- roof tier 1 -->
  <polygon points="50,22 63,33 37,33" fill="#d4a017"/>
  <rect x="46" y="31" width="8" height="4" fill="#9a7010"/>
  <!-- roof tier 2 -->
  <polygon points="50,35 68,47 32,47" fill="#f0c030"/>
  <rect x="44" y="45" width="12" height="4" fill="#9a7010"/>
  <!-- roof tier 3 -->
  <polygon points="50,49 74,63 26,63" fill="#d4a017"/>
  <rect x="42" y="61" width="16" height="5" fill="#7a5a0a"/>
  <!-- body -->
  <rect x="38" y="66" width="24" height="17" rx="2" fill="#f5d050"/>
  <!-- door arch -->
  <path d="M46,83 L46,74 Q50,70 54,74 L54,83 Z" fill="#7a5a0a"/>
  <!-- base -->
  <rect x="27" y="83" width="46" height="6" rx="2" fill="#9a7010"/>
  <!-- lotus dots -->
  <circle cx="30" cy="83" r="3.5" fill="#ff6eb4"/>
  <circle cx="50" cy="81" r="2.5" fill="#ff6eb4"/>
  <circle cx="70" cy="83" r="3.5" fill="#ff6eb4"/>
</svg>
